<svg xmlns="http://www.w3.org/2000/svg" x="0px" y="0px" width="100" height="100" viewBox="0 0 48 48">
<path fill="#f06292" d="M24,4v20L14,6.681L24,4z"></path><path fill="#ff8a65" d="M34,6.681L41.319,14L24,24L34,6.681z"></path><path fill="#e57373" d="M24,4l10,2.681L24,24V4z"></path><path fill="#aed581" d="M24,44V24l10,17.319L24,44z"></path><path fill="#4fc3f7" d="M14,41.319L6.681,34L24,24L14,41.319z"></path><path fill="#81c784" d="M24,44l-10-2.681L24,24V44z"></path><path fill="#ffb74d" d="M44,24H24l17.319-10L44,24z"></path><path fill="#fff176" d="M41.319,34L34,41.319L24,24L41.319,34z"></path><path fill="#ffd54f" d="M44,24l-2.681,10L24,24H44z"></path><path fill="#7986cb" d="M4,24h20L6.681,34L4,24z"></path><path fill="#ba68c8" d="M6.681,14L14,6.681L24,24L6.681,14z"></path><path fill="#9575cd" d="M4,24l2.681-10L24,24H4z"></path>
</svg>