<svg xmlns="http://www.w3.org/2000/svg" x="0px" y="0px" width="100" height="100" viewBox="0 0 32 32">
<path d="M 16 2 C 14.758728 2 13.427185 4.4858398 12.65625 8.5195312 C 13.612244 7.8756714 14.763184 7.5 16 7.5 C 17.236816 7.5 18.387756 7.8756714 19.34375 8.5195312 C 18.572815 4.4858398 17.241272 2 16 2 z M 13.986328 2.1601562 C 7.8699341 3.043457 3.0434571 7.8699341 2.1601562 13.986328 C 3.7618408 12.693726 6.8621217 11.802612 10.404297 11.349609 C 10.65564 10.697754 11.01532 10.101562 11.464844 9.5820312 C 11.94519 6.3856201 12.794983 3.6363526 13.986328 2.1601562 z M 18.013672 2.1601562 C 19.205017 3.6364136 20.05481 6.3856201 20.535156 9.5820312 C 20.98468 10.101562 21.34436 10.697815 21.595703 11.349609 C 25.137878 11.802612 28.238159 12.693726 29.839844 13.986328 C 28.956604 7.8699341 24.130066 3.0433959 18.013672 2.1601562 z M 16 8.5 C 13.243164 8.5 11 10.743164 11 13.5 C 11 18.72168 15.108398 23.016602 15.283203 23.197266 C 15.47168 23.391602 15.729492 23.5 16 23.5 C 16.270508 23.5 16.52832 23.391602 16.716797 23.197266 C 16.891602 23.016602 21 18.72168 21 13.5 C 21 10.743164 18.756836 8.5 16 8.5 z M 16 11.5 C 17.102539 11.5 18 12.397461 18 13.5 C 18 14.602539 17.102539 15.5 16 15.5 C 14.897461 15.5 14 14.602539 14 13.5 C 14 12.397461 14.897461 11.5 16 11.5 z M 10.107422 12.392578 C 5.1434326 13.089356 2 14.602905 2 16 C 2 17.493042 5.5900879 19.116516 11.15625 19.736328 C 11.121521 19.315918 11.093262 18.893982 11.070312 18.46875 C 10.452576 16.990967 10 15.299438 10 13.5 C 10 13.121521 10.0401 12.75177 10.107422 12.392578 z M 21.892578 12.392578 C 21.9599 12.75177 22 13.121521 22 13.5 C 22 15.299439 21.547363 16.991028 20.929688 18.46875 C 20.906738 18.894043 20.878479 19.315918 20.84375 19.736328 C 26.409912 19.116516 30 17.493042 30 16 C 30 14.602905 26.856567 13.089356 21.892578 12.392578 z M 2.1601562 18.013672 C 3.043457 24.130066 7.8699341 28.956543 13.986328 29.839844 C 12.591553 28.111572 11.66803 24.634399 11.253906 20.746094 C 7.3656005 20.33197 3.8884277 19.408447 2.1601562 18.013672 z M 29.839844 18.013672 C 28.111572 19.408447 24.634338 20.33197 20.746094 20.746094 C 20.33197 24.6344 19.408447 28.111572 18.013672 29.839844 C 24.130066 28.956543 28.956543 24.130066 29.839844 18.013672 z M 12.263672 20.84375 C 12.883484 26.409912 14.506958 30 16 30 C 17.493042 30 19.116516 26.409912 19.736328 20.84375 C 19.729248 20.84436 19.721863 20.843201 19.714844 20.84375 C 18.621155 22.646301 17.526794 23.798462 17.435547 23.892578 C 17.060547 24.279297 16.538086 24.5 16 24.5 C 15.461914 24.5 14.938477 24.27832 14.564453 23.892578 C 14.472717 23.797974 13.378967 22.646545 12.285156 20.84375 C 12.278076 20.843201 12.270752 20.84436 12.263672 20.84375 z"></path>
</svg>