<svg xmlns="http://www.w3.org/2000/svg" x="0px" y="0px" width="100" height="100" viewBox="0 0 100 100">
<path fill="#fff" d="M71.546 52.365h-10.03c-.276 0-.5-.224-.5-.5s.224-.5.5-.5h10.03c.276 0 .5.224.5.5S71.823 52.365 71.546 52.365zM74.427 52.365h-1.445c-.276 0-.5-.224-.5-.5s.224-.5.5-.5h1.445c.276 0 .5.224.5.5S74.704 52.365 74.427 52.365zM78.482 52.365h-2.546c-.276 0-.5-.224-.5-.5s.224-.5.5-.5h2.546c.276 0 .5.224.5.5S78.758 52.365 78.482 52.365zM76.457 48.635H66.84c-.276 0-.5-.224-.5-.5s.224-.5.5-.5h9.616c.276 0 .5.224.5.5S76.733 48.635 76.457 48.635zM65.108 48.635h-.579c-.276 0-.5-.224-.5-.5s.224-.5.5-.5h.579c.276 0 .5.224.5.5S65.384 48.635 65.108 48.635zM62.732 48.635h-1.457c-.276 0-.5-.224-.5-.5s.224-.5.5-.5h1.457c.276 0 .5.224.5.5S63.008 48.635 62.732 48.635zM73.893 50.5h-5.027c-.276 0-.5-.224-.5-.5s.224-.5.5-.5h5.027c.276 0 .5.224.5.5S74.169 50.5 73.893 50.5z"></path><path fill="#fff" d="M73.893 48.635h-1.257c-.276 0-.5-.224-.5-.5s.224-.5.5-.5h1.257c.276 0 .5.224.5.5S74.169 48.635 73.893 48.635zM67.411 50.5h-1.759c-.276 0-.5-.224-.5-.5s.224-.5.5-.5h1.759c.276 0 .5.224.5.5S67.687 50.5 67.411 50.5z"></path><path fill="#c7ede6" d="M88.662,56.831c0.3-0.616,0.566-1.264,0.796-1.943c2.633-7.77-1.349-17.078-9.733-19.325c-0.906-11.384-8.906-19.193-17.941-20.526c-10.341-1.525-19.814,5.044-22.966,15.485c-3.799-1.346-7.501-1.182-10.99,0.857c-1.583,0.732-3.031,1.812-4.33,3.233c-1.907,2.086-3.147,4.719-3.652,7.495c-0.748,0.118-1.483,0.236-2.176,0.484c-4.04,1.449-6.589,4.431-7.288,8.923c-0.435,2.797,0.443,5.587,0.933,6.714c1.935,4.455,6.422,6.98,10.981,6.312c0.227-0.033,0.557,0.069,0.752,0.233c0.241,7.12,3.698,13.417,8.884,17.014c8.321,5.772,19.027,3.994,25.781-3.921c2.894,2.96,6.338,4.398,10.384,3.876c4.023-0.519,7.147-2.739,9.426-6.349c1.053,0.283,2.051,0.691,3.083,0.804c4.042,0.442,7.324-1.165,9.732-4.8c0.922-1.391,1.793-3.194,1.793-6.354C92.132,61.788,90.839,58.82,88.662,56.831z"></path><path fill="#fff" d="M18.327 48.866H8.296c-.276 0-.5-.224-.5-.5s.224-.5.5-.5h10.03c.276 0 .5.224.5.5S18.603 48.866 18.327 48.866zM21.209 48.866h-1.446c-.276 0-.5-.224-.5-.5s.224-.5.5-.5h1.446c.276 0 .5.224.5.5S21.485 48.866 21.209 48.866zM25.262 48.866h-2.546c-.276 0-.5-.224-.5-.5s.224-.5.5-.5h2.546c.276 0 .5.224.5.5S25.539 48.866 25.262 48.866zM25.262 50.731h-9.616c-.276 0-.5-.224-.5-.5s.224-.5.5-.5h9.616c.276 0 .5.224.5.5S25.539 50.731 25.262 50.731zM13.915 50.731h-.58c-.276 0-.5-.224-.5-.5s.224-.5.5-.5h.58c.276 0 .5.224.5.5S14.191 50.731 13.915 50.731zM11.538 50.731h-1.456c-.276 0-.5-.224-.5-.5s.224-.5.5-.5h1.456c.276 0 .5.224.5.5S11.814 50.731 11.538 50.731zM20.673 47.002h-5.027c-.276 0-.5-.224-.5-.5s.224-.5.5-.5h5.027c.276 0 .5.224.5.5S20.95 47.002 20.673 47.002zM20.673 45.137h-1.257c-.276 0-.5-.224-.5-.5s.224-.5.5-.5h1.257c.276 0 .5.224.5.5S20.95 45.137 20.673 45.137zM17.405 52.596h-1.759c-.276 0-.5-.224-.5-.5s.224-.5.5-.5h1.759c.276 0 .5.224.5.5S17.681 52.596 17.405 52.596z"></path><path fill="#fdfcef" d="M30.765,77.203c0,0,11.691,0,11.762,0c2.7,0,4.888-2.189,4.888-4.889c0-2.355-1.666-4.321-3.884-4.784c0.026-0.206,0.043-0.415,0.043-0.628c0-2.796-2.267-5.063-5.063-5.063c-1.651,0-3.113,0.794-4.037,2.017c-0.236-3.113-3.017-5.514-6.27-5.116c-2.379,0.291-4.346,2.13-4.784,4.486c-0.14,0.756-0.126,1.489,0.014,2.177c-0.638-0.687-1.546-1.119-2.557-1.119c-1.85,0-3.361,1.441-3.48,3.261c-0.84-0.186-1.754-0.174-2.717,0.188c-1.84,0.691-3.15,2.423-3.227,4.387c-0.109,2.789,2.12,5.085,4.885,5.085c0.21,0,0.948,0,1.118,0h10.151"></path><path fill="#472b29" d="M42.527,77.703H30.765c-0.276,0-0.5-0.224-0.5-0.5s0.224-0.5,0.5-0.5h11.762c2.42,0,4.389-1.969,4.389-4.389c0-2.067-1.466-3.873-3.486-4.295c-0.254-0.053-0.426-0.292-0.394-0.55c0.022-0.186,0.039-0.375,0.039-0.567c0-2.516-2.047-4.563-4.563-4.563c-1.438,0-2.765,0.663-3.639,1.818c-0.125,0.166-0.342,0.237-0.539,0.178c-0.2-0.059-0.342-0.234-0.358-0.441c-0.104-1.377-0.778-2.671-1.85-3.549c-1.082-0.887-2.453-1.282-3.86-1.109c-2.165,0.265-3.955,1.943-4.353,4.081c-0.124,0.667-0.12,1.335,0.013,1.986c0.044,0.22-0.062,0.442-0.262,0.544c-0.197,0.102-0.441,0.061-0.595-0.104c-0.574-0.619-1.353-0.959-2.19-0.959c-1.568,0-2.878,1.227-2.98,2.793c-0.01,0.146-0.082,0.28-0.199,0.367c-0.116,0.087-0.27,0.119-0.407,0.088c-0.844-0.186-1.639-0.131-2.434,0.167c-1.669,0.626-2.836,2.209-2.903,3.938c-0.047,1.207,0.387,2.35,1.222,3.218c0.835,0.869,1.959,1.347,3.163,1.347h11.27c0.276,0,0.5,0.224,0.5,0.5s-0.224,0.5-0.5,0.5h-11.27c-1.479,0-2.858-0.587-3.884-1.653s-1.559-2.469-1.501-3.951c0.084-2.126,1.511-4.069,3.552-4.836c0.799-0.3,1.628-0.4,2.468-0.298c0.377-1.823,1.996-3.182,3.904-3.182c0.685,0,1.354,0.179,1.944,0.51c-0.001-0.386,0.035-0.773,0.107-1.159c0.476-2.562,2.619-4.573,5.214-4.891c1.687-0.208,3.32,0.267,4.615,1.328c1.004,0.823,1.717,1.951,2.038,3.194c1.013-0.916,2.319-1.426,3.714-1.426c3.067,0,5.563,2.496,5.563,5.563c0,0.083-0.002,0.166-0.007,0.249c2.254,0.672,3.848,2.777,3.848,5.164C47.916,75.286,45.499,77.703,42.527,77.703z"></path><path fill="#fdfcef" d="M27.932,66.434c-1.808-0.119-3.365,1.13-3.476,2.789c-0.014,0.206-0.005,0.409,0.025,0.606c-0.349-0.394-0.865-0.661-1.458-0.7c-1.085-0.071-2.022,0.645-2.158,1.62c-0.197-0.054-0.403-0.09-0.616-0.104c-1.582-0.104-2.944,0.989-3.042,2.441"></path><path fill="#472b29" d="M17.208,73.336c-0.006,0-0.011,0-0.017,0c-0.138-0.009-0.242-0.128-0.232-0.266c0.105-1.586,1.562-2.795,3.307-2.674c0.136,0.009,0.272,0.027,0.409,0.053c0.273-0.967,1.256-1.639,2.365-1.568c0.426,0.028,0.824,0.161,1.163,0.382c0.001-0.019,0.002-0.037,0.004-0.055c0.119-1.794,1.807-3.146,3.742-3.022c0.138,0.009,0.242,0.128,0.232,0.266c-0.008,0.132-0.118,0.233-0.249,0.233c-0.005,0-0.011,0-0.017,0c-1.661-0.104-3.108,1.038-3.211,2.557c-0.012,0.186-0.004,0.372,0.023,0.551c0.017,0.11-0.041,0.217-0.141,0.265c-0.102,0.046-0.22,0.022-0.294-0.061c-0.317-0.358-0.786-0.583-1.287-0.616c-0.955-0.064-1.774,0.555-1.893,1.405c-0.011,0.071-0.051,0.134-0.11,0.174s-0.135,0.052-0.203,0.033c-0.189-0.051-0.38-0.084-0.568-0.096c-1.448-0.099-2.687,0.896-2.775,2.208C17.448,73.235,17.338,73.336,17.208,73.336z"></path><path fill="#fdfcef" d="M44.506,68.103c-1.699-0.801-3.664-0.234-4.389,1.267c-0.09,0.186-0.157,0.379-0.201,0.574"></path><path fill="#472b29" d="M39.917,70.193c-0.019,0-0.037-0.002-0.057-0.006c-0.134-0.031-0.218-0.166-0.187-0.3c0.05-0.216,0.123-0.427,0.219-0.625c0.783-1.622,2.899-2.243,4.721-1.384c0.125,0.059,0.179,0.208,0.12,0.333c-0.06,0.125-0.21,0.177-0.333,0.12c-1.575-0.743-3.393-0.226-4.057,1.149c-0.08,0.165-0.142,0.34-0.184,0.521C40.133,70.115,40.031,70.193,39.917,70.193z"></path><path fill="#f4989e" d="M63.783,74.774H36.134c-5.5,0-10-4.5-10-10V37.125c0-5.5,4.5-10,10-10h27.649c5.5,0,10,4.5,10,10v27.649C73.783,70.274,69.283,74.774,63.783,74.774z"></path><path fill="#472b29" d="M63.783,75.474H36.134c-5.9,0-10.7-4.8-10.7-10.7V37.125c0-5.9,4.8-10.7,10.7-10.7h27.648c5.9,0,10.7,4.8,10.7,10.7v27.649C74.483,70.674,69.683,75.474,63.783,75.474z M36.134,27.825c-5.128,0-9.3,4.172-9.3,9.3v27.649c0,5.128,4.172,9.3,9.3,9.3h27.648c5.128,0,9.3-4.172,9.3-9.3V37.125c0-5.128-4.172-9.3-9.3-9.3H36.134z"></path><path fill="#472b29" d="M62.561 71.745H37.356c-4.518 0-8.193-3.675-8.193-8.193V38.346c0-4.518 3.676-8.193 8.193-8.193h25.46c.207 0 .375.168.375.375s-.168.375-.375.375h-25.46c-4.104 0-7.443 3.339-7.443 7.443v25.206c0 4.104 3.339 7.443 7.443 7.443h25.205c4.104 0 7.443-3.339 7.443-7.443V49.437c0-.207.168-.375.375-.375s.375.168.375.375v14.115C70.754 68.07 67.079 71.745 62.561 71.745zM70.379 47.543c-.207 0-.375-.168-.375-.375v-3.025c0-.207.168-.375.375-.375s.375.168.375.375v3.025C70.754 47.375 70.586 47.543 70.379 47.543zM70.379 43.005c-.207 0-.375-.168-.375-.375v-1.513c0-.207.168-.375.375-.375s.375.168.375.375v1.513C70.754 42.837 70.586 43.005 70.379 43.005z"></path><path fill="#fdfcef" d="M80.606,76.567c1.883,0,3.517,0,3.54,0c2.11,0,3.821-1.674,3.821-3.739c0-1.802-1.302-3.305-3.035-3.66c0.02-0.158,0.034-0.317,0.034-0.48c0-2.139-1.772-3.873-3.957-3.873c-1.29,0-2.433,0.607-3.155,1.543c-0.185-2.381-2.358-4.218-4.9-3.913c-1.859,0.223-3.397,1.629-3.739,3.431c-0.11,0.578-0.098,1.139,0.011,1.665c-0.498-0.525-1.208-0.856-1.998-0.856c-1.446,0-2.627,1.102-2.72,2.494c-0.657-0.142-1.371-0.133-2.123,0.143c-1.438,0.528-2.462,1.853-2.522,3.356c-0.085,2.133,1.657,3.889,3.818,3.889c0.164,0,0.741,0,0.874,0h7.934 M74.129,76.567h0.36"></path><path fill="#472b29" d="M84.146,77.067h-3.54c-0.276,0-0.5-0.224-0.5-0.5s0.224-0.5,0.5-0.5h3.54c1.831,0,3.321-1.453,3.321-3.239c0-1.524-1.108-2.857-2.637-3.17c-0.257-0.052-0.429-0.294-0.396-0.554c0.018-0.137,0.03-0.275,0.03-0.416c0-1.86-1.551-3.373-3.457-3.373c-1.093,0-2.099,0.491-2.76,1.348c-0.126,0.165-0.342,0.232-0.538,0.174c-0.198-0.059-0.34-0.234-0.355-0.44c-0.079-1.019-0.565-1.943-1.37-2.603c-0.828-0.68-1.887-0.984-2.973-0.853c-1.646,0.197-3.006,1.442-3.308,3.028c-0.094,0.494-0.09,0.989,0.01,1.471c0.046,0.219-0.06,0.441-0.258,0.544c-0.197,0.104-0.439,0.064-0.594-0.099c-0.429-0.452-1.01-0.7-1.636-0.7c-1.169,0-2.146,0.891-2.222,2.028c-0.01,0.145-0.082,0.278-0.198,0.366c-0.117,0.088-0.264,0.12-0.406,0.089c-0.642-0.139-1.242-0.098-1.846,0.124c-1.262,0.464-2.144,1.632-2.193,2.906c-0.035,0.875,0.282,1.708,0.894,2.344c0.635,0.661,1.496,1.025,2.424,1.025h8.808c0.276,0,0.5,0.224,0.5,0.5s-0.224,0.5-0.5,0.5h-8.808c-1.186,0-2.332-0.486-3.146-1.332c-0.802-0.835-1.218-1.928-1.172-3.077c0.066-1.674,1.212-3.203,2.849-3.805c0.612-0.224,1.242-0.305,1.881-0.245c0.345-1.396,1.63-2.424,3.136-2.424c0.499,0,0.979,0.11,1.413,0.319c0.009-0.24,0.036-0.481,0.082-0.721c0.382-2.01,2.098-3.586,4.171-3.835c1.365-0.16,2.686,0.218,3.727,1.073c0.747,0.613,1.278,1.409,1.546,2.301c0.791-0.648,1.785-1.006,2.843-1.006c2.458,0,4.457,1.961,4.457,4.373c0,0.034-0.001,0.068-0.002,0.103c1.765,0.555,3.004,2.188,3.004,4.038C88.467,75.165,86.529,77.067,84.146,77.067z M74.488,77.067h-0.359c-0.276,0-0.5-0.224-0.5-0.5s0.224-0.5,0.5-0.5h0.359c0.276,0,0.5,0.224,0.5,0.5S74.764,77.067,74.488,77.067z"></path><path fill="#472b29" d="M82.439 71.264c-.018 0-.036-.002-.055-.006-.135-.03-.22-.164-.189-.299.038-.167.095-.329.17-.479.604-1.223 2.272-1.673 3.721-1.006.126.058.181.207.122.332-.058.125-.209.179-.331.122-1.204-.556-2.579-.21-3.063.774-.058.115-.102.238-.13.367C82.657 71.185 82.553 71.264 82.439 71.264zM77.28 77.067h-1.107c-.276 0-.5-.224-.5-.5s.224-.5.5-.5h1.107c.276 0 .5.224.5.5S77.556 77.067 77.28 77.067z"></path><path fill="#ee3e54" d="M49.622,44.082c-5.466-7.807-13.109-4.255-13.109,3.223c0,6.855,9.139,12.692,13.109,14.905c3.97-2.213,13.109-8.05,13.109-14.905C62.732,39.827,55.088,36.275,49.622,44.082z"></path><path fill="#472b29" d="M49.623 62.709c-.084 0-.168-.021-.243-.063-4.02-2.24-13.367-8.217-13.367-15.342 0-3.821 1.927-6.896 4.908-7.837 2.955-.934 6.171.472 8.702 3.769 2.529-3.296 5.744-4.702 8.701-3.769 2.981.94 4.908 4.016 4.908 7.837 0 7.124-9.348 13.102-13.366 15.341C49.791 62.688 49.707 62.709 49.623 62.709zM42.74 40.187c-.513 0-1.021.077-1.519.234-2.557.806-4.209 3.508-4.209 6.883 0 6.459 8.625 12.081 12.61 14.332 3.985-2.251 12.609-7.873 12.609-14.332 0-3.375-1.652-6.077-4.209-6.883-2.678-.845-5.669.63-7.991 3.947-.186.268-.633.268-.818 0C47.322 41.668 44.989 40.187 42.74 40.187zM57.937 74.626c-.027 0-.056-.007-.08-.023-.07-.044-.091-.137-.047-.207l1.963-3.106c.044-.07.138-.091.207-.047.07.044.091.137.047.207l-1.963 3.106C58.036 74.602 57.987 74.626 57.937 74.626zM56.937 74.626c-.027 0-.056-.007-.08-.023-.07-.044-.091-.137-.047-.207l1.963-3.106c.044-.07.138-.091.207-.047.07.044.091.137.047.207l-1.963 3.106C57.036 74.602 56.987 74.626 56.937 74.626zM55.937 74.626c-.027 0-.056-.007-.08-.023-.07-.044-.091-.137-.047-.207l1.963-3.106c.044-.07.138-.091.207-.047.07.044.091.137.047.207l-1.963 3.106C56.036 74.602 55.987 74.626 55.937 74.626zM54.937 74.626c-.027 0-.056-.007-.08-.023-.07-.044-.091-.137-.047-.207l1.963-3.106c.044-.07.138-.091.207-.047.07.044.091.137.047.207l-1.963 3.106C55.036 74.602 54.987 74.626 54.937 74.626zM53.937 74.626c-.027 0-.056-.007-.08-.023-.07-.044-.091-.137-.047-.207l1.963-3.106c.044-.07.139-.091.207-.047.07.044.091.137.047.207l-1.963 3.106C54.036 74.602 53.987 74.626 53.937 74.626zM52.937 74.626c-.027 0-.056-.007-.08-.023-.07-.044-.091-.137-.047-.207l1.963-3.106c.044-.07.139-.091.207-.047.07.044.091.137.047.207l-1.963 3.106C53.036 74.602 52.987 74.626 52.937 74.626zM51.937 74.626c-.027 0-.056-.007-.08-.023-.07-.044-.091-.137-.047-.207l1.298-2.053c.044-.07.138-.091.207-.047.07.044.091.137.047.207l-1.298 2.053C52.036 74.602 51.987 74.626 51.937 74.626zM50.937 74.626c-.027 0-.056-.007-.08-.023-.07-.044-.091-.137-.047-.207l.814-1.289c.044-.071.138-.09.207-.047.07.044.091.137.047.207l-.814 1.289C51.036 74.602 50.987 74.626 50.937 74.626z"></path>
</svg>