<svg xmlns="http://www.w3.org/2000/svg" x="0px" y="0px" width="100" height="100" viewBox="0 0 24 24">
<path fill="#303C42" d="M22,7c0-1.1045694-0.8954296-2-2-2H2C0.8954305,5,0,5.8954306,0,7v5c0,1.1045694,0.8954305,2,2,2h18 c1.1045704,0,2-0.8954306,2-2V7z"></path><path fill="#0288D1" d="M20,13H2c-0.5522847,0-1-0.4477148-1-1V7c0-0.5522847,0.4477153-1,1-1h18c0.5522842,0,1,0.4477153,1,1v5 C21,12.5522852,20.5522842,13,20,13z"></path><path fill="#303C42" d="M4.7993164,8.75C4.6606445,8.5107422,4.3535156,8.4287109,4.1162109,8.5668945L4,8.6339722V8.5 C4,8.2236328,3.7763672,8,3.5,8S3,8.2236328,3,8.5v0.1339722L2.8837891,8.5668945 C2.6450195,8.4287109,2.3388672,8.5107422,2.2006836,8.75C2.0624938,8.9892578,2.1445312,9.2949219,2.3837891,9.4331055 L2.4996948,9.5L2.3837891,9.5668945C2.1445312,9.7050781,2.0624938,10.0107422,2.2006836,10.25 c0.0927734,0.1601562,0.2607422,0.25,0.4335938,0.25c0.0849609,0,0.1708984-0.0214844,0.2495117-0.0668945L3,10.3660278V10.5 C3,10.7763672,3.2236328,11,3.5,11S4,10.7763672,4,10.5v-0.1339722l0.1162109,0.0670776 C4.1948242,10.4785156,4.2807617,10.5,4.3657227,10.5c0.1728516,0,0.3408203-0.0898438,0.4335938-0.25 c0.1381774-0.2392578,0.0561523-0.5449219-0.1831055-0.6831055L4.5003052,9.5l0.1159058-0.0668945 C4.8554688,9.2949219,4.9374938,8.9892578,4.7993164,8.75z"></path><path fill="#303C42" d="M8.7993164,8.75C8.6601562,8.5107422,8.3540039,8.4287109,8.1162109,8.5668945L8,8.6339722V8.5 C8,8.2236328,7.7763672,8,7.5,8S7,8.2236328,7,8.5v0.1339722L6.8837891,8.5668945 C6.644043,8.4287109,6.3383789,8.5107422,6.2006836,8.75C6.0624938,8.9892578,6.1445312,9.2949219,6.3837891,9.4331055 L6.4996948,9.5L6.3837891,9.5668945C6.1445312,9.7050781,6.0624938,10.0107422,6.2006836,10.25 c0.0927734,0.1601562,0.2607422,0.25,0.4335938,0.25c0.0849609,0,0.1708984-0.0214844,0.2495117-0.0668945L7,10.3660278V10.5 C7,10.7763672,7.2236328,11,7.5,11S8,10.7763672,8,10.5v-0.1339722l0.1162109,0.0670776 C8.1948242,10.4785156,8.2807617,10.5,8.3657227,10.5c0.1728516,0,0.3408203-0.0898438,0.4335938-0.25 c0.1381769-0.2392578,0.0561523-0.5449219-0.1831055-0.6831055L8.5003052,9.5l0.1159058-0.0668945 C8.8554688,9.2949219,8.9374933,8.9892578,8.7993164,8.75z"></path><path fill="#303C42" d="M12.7993164,8.75c-0.1386719-0.2392578-0.4448242-0.3212891-0.6831055-0.1831055L12,8.6339722V8.5 C12,8.2236328,11.7763672,8,11.5,8S11,8.2236328,11,8.5v0.1339722l-0.1162109-0.0670776 C10.6445312,8.4287109,10.3383789,8.5107422,10.2006836,8.75c-0.1381903,0.2392578-0.0561523,0.5449219,0.1831055,0.6831055 L10.4996948,9.5l-0.1159058,0.0668945C10.1445312,9.7050781,10.0624933,10.0107422,10.2006836,10.25 c0.0927734,0.1601562,0.2607422,0.25,0.4335938,0.25c0.0849609,0,0.1708984-0.0214844,0.2495117-0.0668945L11,10.3660278V10.5 c0,0.2763672,0.2236328,0.5,0.5,0.5s0.5-0.2236328,0.5-0.5v-0.1339722l0.1162109,0.0670776 C12.1948242,10.4785156,12.2807617,10.5,12.3657227,10.5c0.1728516,0,0.3408203-0.0898438,0.4335938-0.25 c0.1381769-0.2392578,0.0561523-0.5449219-0.1831055-0.6831055L12.5003052,9.5l0.1159058-0.0668945 C12.8554688,9.2949219,12.9374933,8.9892578,12.7993164,8.75z"></path><path fill="#303C42" d="M16.7975864,8.75c-0.1386719-0.2392578-0.4448242-0.3212891-0.6831055-0.1831055l-0.11621,0.0670776V8.5 c0-0.2763672-0.2236328-0.5-0.5-0.5s-0.5,0.2236328-0.5,0.5v0.1339722l-0.1162109-0.0670776 C14.6428022,8.4287109,14.3366499,8.5107422,14.1989546,8.75c-0.1381903,0.2392578-0.0561523,0.5449219,0.1831055,0.6831055 L14.4979658,9.5l-0.1159058,0.0668945C14.1428022,9.7050781,14.0607643,10.0107422,14.1989546,10.25 c0.0927734,0.1601562,0.2607422,0.25,0.4335938,0.25c0.0849609,0,0.1708984-0.0214844,0.2495117-0.0668945l0.1162109-0.0670776 V10.5c0,0.2763672,0.2236328,0.5,0.5,0.5s0.5-0.2236328,0.5-0.5v-0.1339722l0.11621,0.0670776 C16.1930943,10.4785156,16.2790318,10.5,16.3639927,10.5c0.1728516,0,0.3408203-0.0898438,0.4335938-0.25 c0.1381779-0.2392578,0.0561523-0.5449219-0.1831055-0.6831055L16.4985752,9.5l0.1159058-0.0668945 C16.8537388,9.2949219,16.9357643,8.9892578,16.7975864,8.75z"></path><path fill="#303C42" d="M19.5,19c-0.0722656,0-0.1445312-0.015625-0.2109375-0.046875 C15.5624924,17.2177734,15,15.9321289,15,12.4130859V9.8041992c0-0.2163086,0.1396484-0.4082031,0.3447266-0.4755859l4-1.3041992 c0.1015625-0.0322266,0.2089844-0.0322266,0.3105469,0l4,1.3041992C23.8603516,9.3959961,24,9.5878906,24,9.8041992v2.6088867 c0,3.519043-0.5625076,4.8046875-4.2890625,6.5400391C19.6445312,18.984375,19.5722656,19,19.5,19z"></path><path fill="#0288D1" d="M19.5,9.0786133L16,10.2197266v2.2460938c0,0.3956299,0.0064087,0.755127,0.0235596,1.0869141H19.5 V9.0786133z"></path><path fill="#01579B" d="M22.9764404,13.5527344C22.9935913,13.2209473,23,12.8614502,23,12.4658203v-2.2460938l-3.5-1.1411133 v4.4741211H22.9764404z"></path><path fill="#01579B" d="M16.0235596,13.5527344C16.1383057,15.7766724,16.7577515,16.6934204,19.5,18v-4.4472656H16.0235596z"></path><path fill="#0288D1" d="M19.5,13.5527344V18c2.7422485-1.3065796,3.3616943-2.2233276,3.4764404-4.4472656H19.5z"></path><path d="M16.0637817,13.5527344h-0.0402222C16.1383057,15.7766724,16.7577515,16.6934204,19.5,18v-0.9472656 C16.9553223,15.840271,16.2456055,15.4498291,16.0637817,13.5527344z" opacity=".1"></path><path d="M19.5,17.0527344V18c2.7422485-1.3065796,3.3616943-2.2233276,3.4764404-4.4472656h-0.0402222 C22.7543945,15.4498291,22.0446777,15.840271,19.5,17.0527344z" opacity=".1"></path><linearGradient id="LKcH7CjzHMIipFY2pJbdka_ezBzEgIRFIMY_gr1" x1=".837" x2="23.714" y1="4.761" y2="15.428" gradientUnits="userSpaceOnUse"><stop offset="0" stop-color="#fff" stop-opacity=".2"></stop><stop offset="1" stop-color="#fff" stop-opacity="0"></stop></linearGradient><path fill="url(#LKcH7CjzHMIipFY2pJbdka_ezBzEgIRFIMY_gr1)" d="M23.6552734,9.3286133L22,8.7889404V7c0-1.1046143-0.8954468-2-2-2H2C0.8954468,5,0,5.8953857,0,7v5 c0,1.1045532,0.8954468,2,2,2h13.0619507c0.2174072,2.3703613,1.1241455,3.5081787,4.2271118,4.953125 C19.3554688,18.984375,19.4277344,19,19.5,19s0.1445312-0.015625,0.2109375-0.046875 C23.4374924,17.2177734,24,15.9321289,24,12.4130859V9.8041992C24,9.5878906,23.8603516,9.3959961,23.6552734,9.3286133z"></path>
</svg>