<svg xmlns="http://www.w3.org/2000/svg" x="0px" y="0px" width="100" height="100" viewBox="0 0 50 50">
<path d="M 28.625 1.9941406 C 28.289456 1.9973906 27.945255 2.0129998 27.595703 2.0585938 C 26.896599 2.1497808 26.112492 2.3945967 25.546875 3.0410156 L 2.8925781 25.693359 C 1.7885171 26.79742 1.8213179 28.584855 2.8476562 29.757812 L 2.8691406 29.783203 L 20.292969 47.207031 C 21.39703 48.311092 23.186417 48.278294 24.359375 47.251953 L 24.382812 47.230469 L 47.107422 24.507812 C 48.245152 23.370079 48.099609 21.8 48.099609 20.5 L 48.099609 20.085938 L 48.074219 20.060547 C 48.071519 19.979467 48.068906 19.921924 48.066406 19.8125 C 48.057006 19.409233 48.049979 18.828247 48.042969 18.132812 C 48.028949 16.741944 48.017969 14.888327 48.011719 13.033203 C 47.999216 9.3229544 48 5.6 48 5.5 C 48 3.5761905 46.42381 2 44.5 2 L 29.599609 2 C 29.28743 2 28.960544 1.9908906 28.625 1.9941406 z M 28.642578 3.9980469 C 28.938284 3.9951445 29.261789 4 29.599609 4 L 44.5 4 C 45.37619 4 46 4.6238095 46 5.5 C 46 5.6 45.99921 9.326263 46.011719 13.041016 C 46.018019 14.898392 46.028859 16.752588 46.042969 18.152344 C 46.050069 18.852222 46.056636 19.436861 46.066406 19.857422 C 46.071306 20.067702 46.077694 20.235661 46.083984 20.365234 C 46.086884 20.425764 46.090683 20.475923 46.095703 20.53125 C 46.092303 21.80921 45.952482 22.834627 45.693359 23.09375 L 23.035156 45.75 C 22.608363 46.118909 22.00178 46.087717 21.707031 45.792969 L 4.3535156 28.441406 L 4.3515625 28.4375 C 3.9812489 28.01063 4.0115393 27.402523 4.3066406 27.107422 L 27.03125 4.3828125 L 27.052734 4.359375 C 27.187118 4.2057939 27.402619 4.0998282 27.853516 4.0410156 C 28.078964 4.0116094 28.346872 4.0009492 28.642578 3.9980469 z M 39 7 C 36.790196 7 35 8.7901961 35 11 C 35 13.209804 36.790196 15 39 15 C 41.209804 15 43 13.209804 43 11 C 43 8.7901961 41.209804 7 39 7 z M 39 9 C 40.190196 9 41 9.8098039 41 11 C 41 12.190196 40.190196 13 39 13 C 37.809804 13 37 12.190196 37 11 C 37 9.8098039 37.809804 9 39 9 z M 32.300781 17 L 30.699219 18.599609 C 29.399219 17.599609 26.4 16.500391 24 18.900391 C 19.5 23.400391 28.4 27.699609 25 31.099609 C 23.8 32.299609 22.299609 32.799609 20.099609 30.599609 C 17.899609 28.399609 19.000391 26.099219 19.900391 25.199219 L 18.5 23.800781 C 15.7 27.100781 17.099609 29.900781 18.099609 31.300781 L 16.699219 32.699219 L 18.099609 34.099609 L 19.400391 32.800781 C 20.700391 33.700781 23.999219 35.399609 26.699219 32.599609 C 28.999219 30.299609 27.800391 27.700391 26.400391 25.400391 C 25.200391 23.500391 24.299219 21.800391 25.699219 20.400391 C 26.299219 19.800391 27.999609 18.599219 30.099609 20.699219 C 31.599609 22.199219 31.4 23.799609 30.5 25.099609 L 31.900391 26.5 C 33.000391 24.5 33.799609 22.4 32.099609 20 L 33.699219 18.400391 L 32.300781 17 z"></path>
</svg>