<svg xmlns="http://www.w3.org/2000/svg" x="0px" y="0px" width="100" height="100" viewBox="0 0 100 100">
<path fill="#99c0d3" d="M81.648,24.34c-0.356-0.914-0.904-1.361-1.735-0.492c-2.696,2.821-5.98,7.806-10.44,7.697	c-5.308-0.13-7.693-7.167-4.196-10.828c0.593-0.621,2.984-3.125,5.419-5.674c0.585-0.612,0.295-1.65-0.53-1.833	c-2.032-0.451-4.208-0.505-6.46-0.026c-6.603,1.403-11.647,7.071-12.181,13.8c-0.174,2.189,0.197,4.152,0.817,6.222	c0.052,0.172-0.182,0.591-0.626,1.194c-0.106,0.072-0.215,0.13-0.319,0.216c-5.609,4.67-11.012,9.56-16.217,14.65	c-3.103,2.719-6.224,5.538-9.114,8.512c-0.304,0.281-0.613,0.557-0.915,0.84c-4.916,4.593-13.256,11.809-8.737,19.229	c6.452,10.594,17.249-2.15,21.735-7.249c6.504-7.394,12.894-14.894,18.959-22.651c1.657-1.839,2.932-3.269,3.548-3.943	c1.4-1.53,2.433-0.711,4.127-0.476c1.353,0.187,2.731,0.189,4.085,0.018c7.289-0.918,13.092-7.461,13.401-14.755	C82.292,28.266,82.197,25.749,81.648,24.34z M27.771,73.996c-0.086,0.261-0.191,0.521-0.327,0.761	c-0.283,0.499-0.661,0.852-1.125,1.174c-0.219,0.152-0.518,0.256-0.749,0.344c-0.106,0.04-0.215,0.071-0.327,0.09	c-0.281,0.046-0.581,0.103-0.871,0.093c-0.281-0.01-0.563-0.05-0.838-0.11c-0.284-0.063-0.571-0.199-0.825-0.321	c-0.242-0.116-0.463-0.31-0.664-0.472c-0.222-0.179-0.379-0.409-0.55-0.639c-0.064-0.087-0.118-0.176-0.162-0.274	c-0.109-0.242-0.244-0.512-0.295-0.784c-0.048-0.263-0.1-0.548-0.096-0.822c0.009-0.589,0.153-1.102,0.423-1.621	c0.245-0.471,0.665-0.874,1.112-1.152c0.469-0.292,0.996-0.402,1.538-0.438c0.266-0.017,0.586,0.044,0.826,0.086	c0.186,0.033,0.346,0.107,0.521,0.181c0.073,0.031,0.142,0.06,0.21,0.091c0.052,0.006,0.103,0.002,0.155,0.014	c0.266,0.012,0.514,0.091,0.744,0.237c0.236,0.134,0.468,0.304,0.647,0.511c0.353,0.408,0.45,0.603,0.646,1.1	c0.099,0.25,0.116,0.549,0.144,0.805c0.012,0.107,0.012,0.212,0,0.319C27.881,73.426,27.856,73.736,27.771,73.996z"></path><path fill="#99c0d3" d="M43.388,39.042c-4.594-3.705-9.126-7.452-12.678-12.188c0.022-0.662-0.201-1.33-0.707-1.811	c-0.152-0.144-0.289-0.298-0.433-0.449c-0.002-0.002-0.002-0.002-0.004-0.004c-0.183-0.28-0.367-0.557-0.53-0.851	c-0.351-0.63-0.646-1.288-0.958-1.937c-0.732-1.525-1.629-2.899-3.001-3.921c-0.78-0.581-1.706-0.937-2.63-1.222	c-0.451-0.139-0.908-0.258-1.354-0.41c-0.063-0.022-0.127-0.044-0.19-0.066c-0.264-0.102-0.252-0.094,0.039,0.024	c-0.105,0.004-0.422-0.211-0.515-0.259c-1.164-0.594-2.3-0.973-3.614-0.723c-1.326,0.253-2.461,1.292-2.792,2.603	c-0.009,0.034-0.008,0.07-0.016,0.105c-0.206,0.484-0.264,1.016-0.057,1.513c0.546,1.311,1.092,2.622,1.639,3.932	c0.585,1.404,1.025,3.088,2.09,4.215c0.481,0.509,1.031,0.801,1.615,1c0.143,0.079,0.295,0.15,0.456,0.21	c0.437,0.163,0.878,0.313,1.321,0.458c0.419,0.383,0.853,0.722,1.246,0.981c0.184,0.121,0.38,0.207,0.582,0.274	c1.028,0.956,2.049,1.921,3.071,2.884c1.321,1.493,2.604,3.016,3.903,4.401c2.551,2.719,5.108,5.438,7.883,7.931	c2.156,1.936,5.097,0.022,5.196-2.146C44.312,42.493,44.979,40.324,43.388,39.042z M22.684,22.445	c0.033,0.033,0.061,0.061,0.082,0.08c0.004,0.005,0.007,0.011,0.011,0.016C22.748,22.524,22.715,22.488,22.684,22.445z M22.221,21.961c0.015,0.016,0.029,0.031,0.049,0.052c-0.036-0.025-0.068-0.05-0.087-0.074	C22.195,21.946,22.208,21.954,22.221,21.961z"></path><path fill="#f09215" d="M71.656,61.492c-8.254-7.967-16.561-15.886-25.078-23.573c-1.073-0.969-2.948-1.465-4.241-0.547	c-2.562,1.819-5.084,3.672-7.144,6.064c-1.421,1.651-0.944,4.011,0.394,5.252c5.72,8.797,12.524,17.976,19.87,25.383	c5.276,5.32,12.293,12.971,20.156,7.959C85.347,75.825,77.323,66.962,71.656,61.492z"></path><path fill="#fea919" d="M68.585,72.189c0.7-0.947,0.814-2.29-0.209-3.194c-4.281-3.785-8.563-7.57-12.844-11.355	c-0.584-0.516-1.223-0.708-1.825-0.676c-2.27-2.411-4.509-4.85-6.679-7.353c-0.885-1.02-2.628-0.907-3.536,0	c-1.012,1.012-0.887,2.513,0,3.536c2.86,3.297,5.822,6.501,8.853,9.639c0.966,2.602,3.356,4.664,5.296,6.556	c2.465,2.403,5.111,4.601,7.875,6.652c1.085,0.805,2.791,0.179,3.42-0.897C69.542,74.062,69.283,72.989,68.585,72.189z"></path><path d="M31.698,39.611c0,0,0.445,0.482,1.306,1.415c0.432,0.467,0.968,1.047,1.605,1.736c0.319,0.345,0.664,0.717,1.033,1.115 c0.175,0.189,0.356,0.385,0.542,0.586l0.271,0.293l0.137,0.149c0.037,0.05,0.131,0.098,0.046,0.155 c-0.263,0.302-0.462,0.624-0.637,1.073c-0.173,0.454-0.263,0.964-0.246,1.491c0.017,0.526,0.14,1.068,0.371,1.584 c0.124,0.28,0.237,0.462,0.366,0.653c0.067,0.094,0.141,0.183,0.213,0.272c0.061,0.086,0.202,0.162,0.197,0.256 c-0.29,0.277-0.598,0.537-0.91,0.796c-0.37,0.316-0.749,0.639-1.136,0.97c-0.778,0.68-1.59,1.389-2.436,2.127 c-1.686,1.472-3.447,3.187-5.317,4.933c-1.915,1.714-4.001,3.539-6.03,5.697c-1.003,1.09-1.981,2.275-2.854,3.607 c-0.878,1.323-1.602,2.852-1.973,4.551c-0.375,1.695-0.283,3.578,0.339,5.306c0.311,0.851,0.697,1.728,1.295,2.494 c0.586,0.764,1.308,1.433,2.122,1.972c1.63,1.076,3.601,1.65,5.607,1.642c2.007,0.004,4.063-0.605,5.803-1.657 c3.536-2.106,5.963-5.433,8.569-8.343c1.334-1.502,2.686-3.025,4.057-4.569c0.686-0.773,1.376-1.552,2.071-2.335l0.799-0.896 l0.224-0.233l0.253,0.352c0.431,0.541,0.864,1.085,1.299,1.63c0.878,1.086,1.78,2.17,2.71,3.249 c1.848,2.153,3.851,4.303,5.908,6.359c2.048,2.073,4.186,4.236,6.79,6.082c1.315,0.905,2.75,1.73,4.365,2.309 c1.619,0.564,3.449,0.794,5.237,0.551c0.909-0.087,1.755-0.384,2.609-0.665c0.792-0.38,1.621-0.727,2.347-1.217 c1.467-0.963,2.805-2.208,3.788-3.774c0.998-1.545,1.599-3.437,1.598-5.352c0.014-1.933-0.556-3.731-1.37-5.359 c-1.702-3.231-4.293-5.548-6.631-7.772c-2.357-2.25-4.734-4.518-7.127-6.802c-1.55-1.476-3.093-2.946-4.628-4.408 c-0.768-0.731-1.534-1.46-2.299-2.187l-0.262-0.249l0.003,0.003l0,0.001c0,0-0.002-0.002,0.003-0.011l0.307-0.398l0.241-0.312 l0.04-0.049l0.13-0.145l1.039-1.157c0.393-0.448,0.574-0.624,0.695-0.677c0.099-0.038,0.063-0.067,0.445-0.012 c0.342,0.054,0.898,0.219,1.511,0.325c0.63,0.105,1.157,0.15,1.741,0.183c1.142,0.052,2.277,0.01,3.399-0.175 c4.549-0.688,8.566-3.331,11.118-6.872c2.56-3.526,3.859-8.006,3.131-12.269c-0.041-0.262-0.079-0.513-0.159-0.882 c-0.098-0.445-0.213-0.889-0.375-1.29c-0.317-0.817-0.778-1.44-1.424-1.755c-0.324-0.164-0.728-0.238-1.081-0.203 c-0.353,0.037-0.677,0.146-0.997,0.331l-0.946,0.811c-0.271,0.282-0.515,0.57-0.773,0.853c-0.632,0.727-1.26,1.451-1.886,2.171 c-0.605,0.684-1.22,1.317-1.853,1.893c-1.258,1.168-2.646,1.989-4.027,2.17c-0.694,0.083-1.388-0.032-2.025-0.234 c-0.63-0.243-1.19-0.648-1.675-1.148c-0.477-0.514-0.826-1.153-1.089-1.818c-0.251-0.677-0.345-1.398-0.353-2.104 c0.02-0.709,0.188-1.384,0.445-2.011c0.182-0.282,0.298-0.608,0.533-0.851c0.113-0.135,0.187-0.254,0.326-0.407l0.438-0.468 c1.166-1.247,2.317-2.479,3.454-3.696l0.999-1.067c0.517-0.516,0.881-1.023,0.986-1.603c0.121-0.589-0.027-1.242-0.384-1.728 c-0.354-0.51-0.885-0.744-1.514-0.916c-0.387-0.08-0.795-0.143-1.176-0.197c-0.256-0.033-0.512-0.057-0.767-0.078 c-0.511-0.04-1.022-0.053-1.53-0.044c-1.016,0.018-2.019,0.133-2.992,0.335c-1.948,0.408-3.785,1.149-5.393,2.175 c-3.233,2.035-5.573,5.079-6.743,8.351c-0.595,1.637-0.882,3.326-0.941,4.982c-0.037,1.664,0.241,3.27,0.648,4.747l0.157,0.55 l0.082,0.272l0.042,0.135l0.021,0.067l0.01,0.034l0.005,0.017l0.003,0.008c-0.49,0.15,0.672-0.195,0.545-0.158 c-0.073,0.023-0.234,0.013-0.437-0.039c-0.147-0.04-0.121-0.034-0.12-0.028l-0.009,0.025c-0.018,0.047-0.045,0.101-0.069,0.145 c-0.051,0.095-0.1,0.196-0.201,0.244l-0.42,0.279c-0.188,0.118-0.313,0.237-0.447,0.355c-0.269,0.237-0.536,0.472-0.801,0.705 c-0.53,0.466-1.052,0.926-1.566,1.379l-0.641,0.569c-0.162,0.125-0.328,0.34-0.492,0.396c-0.132-0.115-0.261-0.232-0.401-0.333 c-0.079-0.052-0.126-0.088-0.234-0.148c-0.125-0.076-0.255-0.14-0.384-0.201c-0.517-0.244-1.057-0.378-1.592-0.422 c-0.535-0.044-1.07,0.009-1.569,0.17c-0.568,0.195-0.684,0.333-0.969,0.541c-0.229-0.085-0.454-0.327-0.681-0.486 c-0.304-0.244-0.604-0.485-0.899-0.722c-0.592-0.49-1.168-0.965-1.726-1.427c-1.106-0.934-2.121-1.839-3.043-2.717 c-1.849-1.753-3.317-3.408-4.489-4.903l0.039,0.115c-0.091-0.695-0.4-1.066-0.609-1.437c-0.227-0.356-0.443-0.642-0.647-0.916 l-0.122,0.088c-1.142-2.371-2.007-4.122-2.817-5.125c-0.394-0.505-0.743-0.829-0.978-1.034c-0.237-0.205-0.363-0.292-0.363-0.292 s0.122,0.094,0.349,0.308c0.225,0.215,0.558,0.551,0.928,1.068c0.373,0.513,0.778,1.204,1.19,2.082 c0.207,0.442,0.433,0.922,0.677,1.442c0.128,0.26,0.238,0.53,0.394,0.811c0.173,0.28,0.353,0.57,0.538,0.87l-0.04-0.038 c0.19,0.281,0.39,0.569,0.596,0.92c0.189,0.341,0.468,0.785,0.51,1.261l0.006,0.069l0.033,0.046 c1.119,1.558,2.538,3.295,4.339,5.138c0.899,0.923,1.89,1.875,2.972,2.858c0.546,0.485,1.109,0.985,1.688,1.499 c0.298,0.257,0.6,0.517,0.907,0.781c0.386,0.307,0.783,0.706,1.19,0.956c0.417-0.303,1.03-0.726,1.331-0.777 c0.361-0.102,0.758-0.128,1.163-0.081c0.405,0.048,0.821,0.165,1.21,0.365c0.097,0.05,0.195,0.101,0.286,0.162 c0.117,0.063,0.272,0.199,0.405,0.305c0.275,0.233,0.54,0.486,0.813,0.741c0.336-0.187,0.681-0.539,1.031-0.809 c0.3-0.248,0.603-0.498,0.908-0.75c0.527-0.433,1.062-0.873,1.604-1.319c0.271-0.223,0.545-0.448,0.82-0.674 c0.138-0.114,0.278-0.236,0.404-0.299l0.193-0.118l0.295-0.192c0.243-0.108,0.366-0.341,0.5-0.559 c0.067-0.113,0.126-0.221,0.18-0.343c0.034-0.152,0.163-0.22,0.086-0.724c-0.092-0.352-0.185-0.707-0.278-1.064 c-0.339-1.404-0.537-2.856-0.46-4.332c0.101-1.475,0.402-2.984,0.975-4.425c1.127-2.886,3.288-5.525,6.172-7.234 c1.435-0.863,3.052-1.464,4.75-1.777c0.851-0.154,1.72-0.232,2.596-0.226c0.438,0.003,0.877,0.024,1.316,0.069l0.657,0.083 l0.237,0.046c0.123,0.031,0.262,0.044,0.342,0.152c0.08,0.099,0.099,0.246,0.044,0.363c-0.057,0.117-0.172,0.191-0.255,0.282 l-0.719,0.733c-1.163,1.191-2.341,2.398-3.533,3.62l-0.448,0.459c-0.153,0.16-0.333,0.388-0.496,0.582 c-0.359,0.387-0.584,0.87-0.856,1.321c-0.435,0.958-0.699,1.988-0.747,3.032c-0.069,2.08,0.604,4.186,2.039,5.838 c0.735,0.805,1.646,1.491,2.704,1.917c1.066,0.385,2.204,0.567,3.333,0.454c2.28-0.257,4.184-1.48,5.664-2.799 c0.756-0.665,1.456-1.369,2.108-2.084c0.617-0.691,1.238-1.384,1.86-2.081l0.181-0.196l0.057-0.054 c0.034-0.034,0.093-0.065,0.134-0.021c0.036,0.039,0.049,0.093,0.061,0.14l0.098,0.616c0.557,3.402-0.539,7.044-2.667,9.92 c-2.126,2.897-5.426,4.983-9.003,5.496c-0.899,0.146-1.83,0.172-2.744,0.125c-0.444-0.026-0.947-0.077-1.335-0.145 c-0.406-0.067-0.843-0.209-1.521-0.335c-0.628-0.145-1.764-0.131-2.584,0.342c-0.817,0.42-1.322,1.066-1.623,1.386l-1.058,1.169 l-0.132,0.146c-0.052,0.048-0.195,0.234-0.21,0.253l-0.24,0.308l-0.656,0.843l-0.961,1.235l-0.482,0.62 c-0.155,0.109,0.008,0.194,0.095,0.285l0.284,0.271l2.025,1.934c0.761,0.727,1.524,1.456,2.288,2.186 c1.53,1.46,3.068,2.928,4.613,4.402c2.401,2.285,4.785,4.554,7.15,6.805c2.383,2.227,4.673,4.361,5.981,6.845 c0.623,1.222,1.033,2.557,1.023,3.81c0.006,1.262-0.364,2.506-1.06,3.605c-1.362,2.177-3.925,3.905-6.396,4.23 c-1.248,0.179-2.527,0.052-3.779-0.364c-1.249-0.434-2.458-1.096-3.616-1.871c-2.31-1.59-4.385-3.605-6.446-5.637 c-2.087-2.024-4.021-4.037-5.878-6.126c-0.926-1.039-1.829-2.085-2.71-3.135c-0.437-0.528-0.872-1.054-1.305-1.577 c-0.765-0.961-1.527-1.917-2.285-2.869c-3.11,3.642-6.143,7.194-9.092,10.646c-2.633,3.105-4.884,6.245-7.853,8.092 c-1.46,0.928-3.074,1.439-4.704,1.485c-1.63,0.053-3.245-0.38-4.557-1.197c-1.328-0.82-2.293-2.023-2.803-3.482 c-0.553-1.42-0.677-2.934-0.406-4.385c0.543-2.938,2.409-5.436,4.235-7.589c1.893-2.148,3.895-4.025,5.772-5.824 c1.846-1.848,3.491-3.571,5.128-5.109c0.814-0.766,1.597-1.503,2.346-2.208c0.383-0.353,0.759-0.699,1.125-1.037 c0.428-0.389,0.834-0.769,1.208-1.154c-0.33-0.438-0.877-1.027-1.063-1.466c-0.222-0.449-0.351-0.927-0.385-1.396 c-0.034-0.469,0.028-0.927,0.167-1.343c0.139-0.418,0.412-0.88,0.698-1.233c0.071-0.067-0.037-0.124-0.087-0.184l-0.176-0.176 c-0.116-0.116-0.23-0.23-0.343-0.342c-0.216-0.215-0.425-0.424-0.627-0.625c-0.385-0.382-0.744-0.739-1.077-1.07 c-0.665-0.66-1.225-1.216-1.677-1.664C32.164,40.073,31.698,39.611,31.698,39.611z"></path>
</svg>