<svg xmlns="http://www.w3.org/2000/svg" x="0px" y="0px" width="100" height="100" viewBox="0 0 50 50">
<path d="M 4 3 C 1.79 3 0 4.79 0 7 L 0 27 C 0 29.21 1.79 31 4 31 L 4.7207031 31 L 7.6503906 25 L 5 25 L 5 21 L 10.589844 21 C 10.719844 20.94 10.850469 20.889844 10.980469 20.839844 C 11.990469 20.489844 13.069297 20.559297 14.029297 21.029297 C 14.679297 21.339297 15.219375 21.820156 15.609375 22.410156 C 16.099375 21.640156 16.819453 21.069531 17.689453 20.769531 C 18.689453 20.429531 19.780234 20.490937 20.740234 20.960938 C 21.470234 21.310938 22.059219 21.870781 22.449219 22.550781 C 22.829219 22.180781 23.279297 21.879922 23.779297 21.669922 C 24.819297 21.239922 25.969766 21.289063 27.009766 21.789062 C 27.699766 22.129062 28.210078 22.600625 28.580078 23.140625 L 31.439453 17.279297 C 31.959453 16.199297 32.849453 15.450391 33.939453 15.150391 C 34.869453 14.900391 35.909063 15.009453 36.789062 15.439453 C 38.459063 16.249453 39.620391 18.460234 38.650391 20.740234 L 33.650391 31 L 46 31 C 48.21 31 50 29.21 50 27 L 50 7 C 50 4.79 48.21 3 46 3 L 4 3 z M 5 9 L 9 9 L 9 13 L 5 13 L 5 9 z M 11 9 L 15 9 L 15 13 L 11 13 L 11 9 z M 17 9 L 21 9 L 21 13 L 17 13 L 17 9 z M 23 9 L 27 9 L 27 13 L 23 13 L 23 9 z M 29 9 L 33 9 L 33 13 L 29 13 L 29 9 z M 35 9 L 39 9 L 39 13 L 35 13 L 35 9 z M 41 9 L 45 9 L 45 13 L 41 13 L 41 9 z M 5 15 L 12 15 L 12 19 L 5 19 L 5 15 z M 14 15 L 18 15 L 18 19 L 14 19 L 14 15 z M 20 15 L 24 15 L 24 19 L 20 19 L 20 15 z M 26 15 L 30 15 L 30 19 L 26 19 L 26 15 z M 40 15 L 45 15 L 45 19 L 40 19 L 40 15 z M 34.818359 17.027344 C 34.695234 17.036719 34.575938 17.057344 34.460938 17.089844 C 33.920938 17.229844 33.510234 17.590391 33.240234 18.150391 L 28.869141 27.109375 C 28.859141 27.119375 28.859609 27.130625 28.849609 27.140625 L 27.099609 30.740234 C 26.859609 31.230234 26.259766 31.439219 25.759766 31.199219 C 25.269766 30.959219 25.060781 30.359375 25.300781 29.859375 L 27.070312 26.240234 C 27.410312 25.510234 27.350859 24.179844 26.130859 23.589844 C 25.470859 23.269844 24.899062 23.379531 24.539062 23.519531 C 24.069062 23.709531 23.670938 24.079766 23.460938 24.509766 L 22.599609 26.279297 C 22.589609 26.289297 22.590078 26.300547 22.580078 26.310547 L 21.710938 28.109375 C 21.460938 28.599375 20.869141 28.810312 20.369141 28.570312 C 19.869141 28.320313 19.670156 27.730469 19.910156 27.230469 L 20.789062 25.410156 C 21.019062 24.940156 21.050859 24.400391 20.880859 23.900391 C 20.710859 23.400391 20.339375 22.989766 19.859375 22.759766 C 19.379375 22.519766 18.839844 22.490156 18.339844 22.660156 C 17.829844 22.840156 17.419453 23.199687 17.189453 23.679688 L 15 28.169922 C 14.76 28.669922 14.160156 28.880859 13.660156 28.630859 C 13.170156 28.390859 12.959219 27.790781 13.199219 27.300781 L 14.080078 25.5 C 14.310078 25.02 14.339922 24.480703 14.169922 23.970703 C 13.999922 23.470703 13.640156 23.060312 13.160156 22.820312 C 12.880156 22.690312 12.579297 22.619141 12.279297 22.619141 C 12.059297 22.619141 11.840859 22.660469 11.630859 22.730469 C 11.120859 22.900469 10.720469 23.260234 10.480469 23.740234 L 6.0996094 32.730469 C 3.9196094 37.190469 5.7802344 42.589531 10.240234 44.769531 L 16 47.570312 C 22.73 50.860312 30.889688 48.050547 34.179688 41.310547 L 36.990234 35.560547 C 37.860234 33.760547 37.410937 33.540312 36.960938 33.320312 C 35.710938 32.710312 32.619687 33.110547 31.179688 36.060547 C 31.169687 36.070547 31.170156 36.079844 31.160156 36.089844 L 29.419922 39.660156 C 29.179922 40.150156 28.589844 40.359141 28.089844 40.119141 C 27.589844 39.879141 27.380859 39.279297 27.630859 38.779297 L 36.830078 19.910156 C 37.330078 18.730156 36.740156 17.640469 35.910156 17.230469 C 35.580156 17.072969 35.187734 16.999219 34.818359 17.027344 z M 39 21 L 45 21 L 45 25 L 39 25 L 39 21 z"></path>
</svg>